<svg width="24" height="24" viewBox="0 0 24 24" fill="none" xmlns="http://www.w3.org/2000/svg">
<g id="twitter">
<path id="Vector" fill-rule="evenodd" clip-rule="evenodd" d="M14.1453 3.16342C16.0382 2.65626 18.3223 3.35569 19.7137 4.89836H21.2737C21.3967 4.89847 21.5176 4.93106 21.6251 4.99307C21.7327 5.05508 21.8234 5.14448 21.8888 5.25292C21.9541 5.36136 21.992 5.48529 21.9989 5.61311C22.0057 5.74094 21.9813 5.86849 21.928 5.98383L20.3941 9.29322C20.8303 13.1507 19.3807 16.8385 16.4657 19.0185C13.4852 21.2485 9.09881 21.8102 3.89678 19.5908C3.61455 19.4794 3.3726 19.2794 3.20449 19.0184C3.03638 18.7574 2.95043 18.4484 2.95858 18.1342C2.96673 17.8201 3.06857 17.5164 3.24997 17.2652C3.43137 17.014 3.68334 16.8279 3.97093 16.7326C4.76904 16.5075 5.53403 16.1703 6.24481 15.7303C4.65264 14.7343 3.40609 13.2365 2.68549 11.4539C1.96489 9.67127 1.80762 7.69614 2.23643 5.81427C2.26904 5.53327 2.37665 5.26741 2.54705 5.04687C2.71745 4.82634 2.94381 4.65997 3.20043 4.56664C3.45706 4.47331 3.73367 4.45676 3.99888 4.51887C4.26408 4.58099 4.50725 4.71928 4.70078 4.91804C6.75513 7.02085 8.55069 7.88983 9.79522 8.2456C10.2779 8.38337 10.6821 8.44544 10.9903 8.47117C10.8944 7.13894 11.1125 6.02773 11.5951 5.14967C12.1825 4.07933 13.1174 3.43895 14.1453 3.16342Z" fill="#6F6C85"/>
</g>
</svg>
