<svg width="25" height="24" viewBox="0 0 25 24" fill="none" xmlns="http://www.w3.org/2000/svg">
<g id="User Icon">
<g id="vuesax/linear/user-octagon">
<g id="user-octagon">
<path id="Vector" d="M22.0191 8.58003V15.42C22.0191 16.54 21.4191 17.58 20.4491 18.15L14.5091 21.58C13.5391 22.14 12.3391 22.14 11.3591 21.58L5.41912 18.15C4.44912 17.59 3.84912 16.55 3.84912 15.42V8.58003C3.84912 7.46003 4.44912 6.41999 5.41912 5.84999L11.3591 2.42C12.3291 1.86 13.5291 1.86 14.5091 2.42L20.4491 5.84999C21.4191 6.41999 22.0191 7.45003 22.0191 8.58003Z" stroke="white" stroke-width="1.5" stroke-linecap="round" stroke-linejoin="round"/>
<g id="User Icon_2">
<path id="Vector_2" d="M12.9389 11C14.2257 11 15.2689 9.95681 15.2689 8.66998C15.2689 7.38316 14.2257 6.34003 12.9389 6.34003C11.6521 6.34003 10.6089 7.38316 10.6089 8.66998C10.6089 9.95681 11.6521 11 12.9389 11Z" stroke="white" stroke-width="1.5" stroke-linecap="round" stroke-linejoin="round"/>
<path id="Vector_3" d="M16.939 16.66C16.939 14.86 15.149 13.4 12.939 13.4C10.729 13.4 8.93896 14.86 8.93896 16.66" stroke="white" stroke-width="1.5" stroke-linecap="round" stroke-linejoin="round"/>
</g>
</g>
</g>
</g>
</svg>
