<svg width="16" height="16" viewBox="0 0 16 16" fill="none" xmlns="http://www.w3.org/2000/svg">
<g id="ic:baseline-discord">
<path id="Vector" d="M12.5438 3.83128C11.7126 3.44378 10.8126 3.16253 9.87507 3.00003C9.86685 2.99977 9.85868 3.00131 9.85112 3.00455C9.84356 3.00779 9.8368 3.01265 9.83132 3.01878C9.71882 3.22503 9.58757 3.49378 9.50007 3.70003C8.5057 3.55003 7.49445 3.55003 6.50007 3.70003C6.41257 3.48753 6.28132 3.22503 6.16257 3.01878C6.15632 3.00628 6.13757 3.00003 6.11882 3.00003C5.18132 3.16253 4.28757 3.44378 3.45007 3.83128C3.44382 3.83128 3.43757 3.83753 3.43132 3.84378C1.73132 6.38753 1.26257 8.86253 1.49382 11.3125C1.49382 11.325 1.50007 11.3375 1.51257 11.3438C2.63757 12.1688 3.71882 12.6688 4.78757 13C4.80632 13.0063 4.82507 13 4.83132 12.9875C5.08132 12.6438 5.30632 12.2813 5.50007 11.9C5.51257 11.875 5.50007 11.85 5.47507 11.8438C5.11882 11.7063 4.78132 11.5438 4.45007 11.3563C4.42507 11.3438 4.42507 11.3063 4.44382 11.2875C4.51257 11.2375 4.58132 11.1813 4.65007 11.1313C4.66257 11.1188 4.68132 11.1188 4.69382 11.125C6.84382 12.1063 9.16257 12.1063 11.2876 11.125C11.3001 11.1188 11.3188 11.1188 11.3313 11.1313C11.4001 11.1875 11.4688 11.2375 11.5376 11.2938C11.5626 11.3125 11.5626 11.35 11.5313 11.3625C11.2063 11.5563 10.8626 11.7125 10.5063 11.85C10.4813 11.8563 10.4751 11.8875 10.4813 11.9063C10.6813 12.2875 10.9063 12.65 11.1501 12.9938C11.1688 13 11.1876 13.0063 11.2063 13C12.2813 12.6688 13.3626 12.1688 14.4876 11.3438C14.5001 11.3375 14.5063 11.325 14.5063 11.3125C14.7813 8.48128 14.0501 6.02503 12.5688 3.84378C12.5626 3.83753 12.5563 3.83128 12.5438 3.83128ZM5.82507 9.81878C5.18132 9.81878 4.64382 9.22503 4.64382 8.49378C4.64382 7.76253 5.16882 7.16878 5.82507 7.16878C6.48757 7.16878 7.01257 7.76878 7.00632 8.49378C7.00632 9.22503 6.48132 9.81878 5.82507 9.81878ZM10.1813 9.81878C9.53757 9.81878 9.00007 9.22503 9.00007 8.49378C9.00007 7.76253 9.52507 7.16878 10.1813 7.16878C10.8438 7.16878 11.3688 7.76878 11.3626 8.49378C11.3626 9.22503 10.8438 9.81878 10.1813 9.81878Z" fill="white"/>
</g>
</svg>
